HIERARCHY
ROOT Hips
{
	OFFSET	0.00	0.00	0.00
	CHANNELS 6 Xposition Yposition Zposition Zrotation Xrotation Yrotation
	JOINT LeftUpLeg
	{
		OFFSET	 0.126116	-0.014019	-0.065224
		CHANNELS 3 Zrotation Xrotation Yrotation
		JOINT LeftLeg
		{
			OFFSET	 0.000000	 0.000000	 0.569914
			CHANNELS 3 Zrotation Xrotation Yrotation
			JOINT LeftFoot
			{
				OFFSET	 0.000000	 0.000000	 0.544423
				CHANNELS 3 Zrotation Xrotation Yrotation
				JOINT LeftToeBase
				{
					OFFSET	 0.000000	 0.000000	 0.207117
					CHANNELS 3 Zrotation Xrotation Yrotation
					End Site
					{
						OFFSET	 0.000000	 0.000000	 0.207117
					}
				}
			}
		}
	}
	JOINT RightUpLeg
	{
		OFFSET	-0.124023	-0.008373	-0.065224
		CHANNELS 3 Zrotation Xrotation Yrotation
		JOINT RightLeg
		{
			OFFSET	 0.000000	 0.000000	 0.570047
			CHANNELS 3 Zrotation Xrotation Yrotation
			JOINT RightFoot
			{
				OFFSET	 0.000000	 0.000000	 0.544354
				CHANNELS 3 Zrotation Xrotation Yrotation
				JOINT RightToeBase
				{
					OFFSET	 0.000000	 0.000000	 0.207540
					CHANNELS 3 Zrotation Xrotation Yrotation
					End Site
					{
						OFFSET	 0.000000	 0.000000	 0.207540
					}
				}
			}
		}
	}
	JOINT Spine
	{
		OFFSET	 0.000184	-0.007763	 0.117403
		CHANNELS 3 Zrotation Xrotation Yrotation
		JOINT Spine1
		{
			OFFSET	 0.000000	 0.000000	 0.137269
			CHANNELS 3 Zrotation Xrotation Yrotation
			JOINT Spine2
			{
				OFFSET	 0.000000	 0.000000	 0.156879
				CHANNELS 3 Zrotation Xrotation Yrotation
				JOINT LeftShoulder
				{
					OFFSET	 0.080501	-0.002496	 0.160144
					CHANNELS 3 Zrotation Xrotation Yrotation
					JOINT LeftArm
					{
						OFFSET	 0.000000	 0.000000	 0.164363
						CHANNELS 3 Zrotation Xrotation Yrotation
						JOINT LeftForeArm
						{
							OFFSET	 0.000000	 0.000000	 0.364576
							CHANNELS 3 Zrotation Xrotation Yrotation
							JOINT LeftHand
							{
								OFFSET	 0.000000	 0.000000	 0.360812
								CHANNELS 3 Zrotation Xrotation Yrotation
								JOINT LeftHandIndex1
								{
									OFFSET	 0.000000	 0.000000	 0.086006
									CHANNELS 3 Zrotation Xrotation Yrotation
									JOINT LeftHandIndex2
									{
										OFFSET	 0.000000	 0.000000	 0.047236
										CHANNELS 3 Zrotation Xrotation Yrotation
										JOINT LeftHandIndex3
										{
											OFFSET	-0.004284	-0.000551	 0.038166
											CHANNELS 3 Zrotation Xrotation Yrotation
											End Site
											{
												OFFSET	-0.004284	-0.000551	 0.038166
											}
										}
									}
								}
							}
						}
					}
				}
				JOINT Neck
				{
					OFFSET	 0.000000	 0.000000	 0.176489
					CHANNELS 3 Zrotation Xrotation Yrotation
					JOINT Head
					{
						OFFSET	 0.000000	-0.001747	 0.077940
						CHANNELS 3 Zrotation Xrotation Yrotation
						End Site
						{
							OFFSET	 0.000000	-0.001747	 0.077940
						}
					}
				}
				JOINT RightShoulder
				{
					OFFSET	-0.080363	 0.000306	 0.159706
					CHANNELS 3 Zrotation Xrotation Yrotation
					JOINT RightArm
					{
						OFFSET	 0.000000	 0.000000	 0.164196
						CHANNELS 3 Zrotation Xrotation Yrotation
						JOINT RightForeArm
						{
							OFFSET	 0.000000	 0.000000	 0.365611
							CHANNELS 3 Zrotation Xrotation Yrotation
							JOINT RightHand
							{
								OFFSET	 0.000000	 0.000000	 0.360648
								CHANNELS 3 Zrotation Xrotation Yrotation
								JOINT RightHandIndex1
								{
									OFFSET	 0.000000	 0.000000	 0.069977
									CHANNELS 3 Zrotation Xrotation Yrotation
									JOINT RightHandIndex2
									{
										OFFSET	 0.000000	 0.000000	 0.052305
										CHANNELS 3 Zrotation Xrotation Yrotation
										JOINT RightHandIndex3
										{
											OFFSET	 0.009002	-0.000782	 0.042196
											CHANNELS 3 Zrotation Xrotation Yrotation
											End Site
											{
												OFFSET	 0.009002	-0.000782	 0.042196
											}
										}
									}
								}
							}
						}
					}
				}
			}
		}
	}
}
MOTION
Frames:    12
Frame Time: 0.03333334
-0.043581	 0.263443	 0.976625	 4.201020	 34.430920	-8.976713	-10.099650	-88.280350	 172.303100	 10.474650	-77.825040	 10.651900	-53.775830	 84.149140	 59.869900	-2.385833	 28.452760	 0.000004	 97.598180	-75.294490	-89.394220	-27.784530	-81.622830	-22.420730	 86.844180	 79.319730	-79.081870	 2.384659	 28.388700	-0.000001	 2.169564	 16.053920	-0.117689	-1.690972	 23.437550	 0.065438	-7.675484	-1.716894	 5.038869	-99.249590	 68.212750	 156.507400	 10.265750	-4.008621	-33.804810	-3.833261	 12.757650	-40.813890	-31.591090	-39.130230	-21.822040	-2.027600	 6.559038	 9.033609	-5.188889	 0.308190	 3.541030	-5.234859	 0.342567	 0.430617	 0.645821	 19.077430	-6.725838	-6.841522	-28.897530	-3.928690	 97.508570	 64.704370	-158.901400	-5.506931	 3.695962	 53.009780	-7.004759	 0.306653	 25.366130	 13.729160	-38.473820	 15.956270	 1.803333	 3.979147	-15.098590	 4.898592	 3.004813	-9.310344	 5.224449	 0.395017	 2.014677
-0.043907	 0.262480	 0.984906	 3.806433	 33.320590	-8.139655	-18.987150	-86.234380	 163.497300	 8.977089	-76.991810	 9.156707	-54.048370	 83.978320	 60.208220	-2.385832	 28.452790	-0.000001	 89.810040	-75.824910	-97.539870	-25.883880	-80.536060	-20.478920	 85.094470	 79.513790	-77.007510	 2.384659	 28.388700	-0.000001	 2.578493	 16.387740	-0.417138	-1.230072	 24.527040	-0.521613	-7.904636	-3.103913	 4.559347	-98.809710	 68.441080	 157.518600	 9.576516	-2.008358	-35.404930	-3.446218	 12.551650	-41.168190	-32.882570	-39.584960	-22.834080	-2.027600	 6.559038	 9.033609	-5.188889	 0.308190	 3.541030	-5.234859	 0.342567	 0.430617	-0.191623	 13.895860	-4.749942	-7.427724	-23.496490	-4.406626	 97.223400	 64.407040	-159.893600	-6.029736	 3.707214	 54.175370	-6.255403	 0.671165	 25.670490	 14.781370	-38.703980	 18.080600	 1.803333	 3.979147	-15.098590	 4.898592	 3.004813	-9.310344	 5.224449	 0.395017	 2.014677
-0.043905	 0.261701	 0.997790	 3.409346	 31.964580	-7.285415	-20.992870	-83.467540	 161.752500	 7.719547	-75.421590	 7.877486	-52.425320	 83.544240	 58.350040	-2.385832	 28.452790	-0.000001	 78.796590	-76.012400	-108.792200	-23.449950	-78.762730	-17.975540	 81.154550	 79.764610	-72.765180	 2.384659	 28.388700	-0.000001	 2.906467	 16.898450	-0.637844	-0.643847	 25.433300	-1.143802	-8.192405	-4.625599	 3.975797	-97.880260	 69.609310	 158.677800	 9.198710	 1.067659	-37.545160	-2.961235	 12.218420	-41.460020	-34.679410	-40.168000	-24.715960	-2.027600	 6.559038	 9.033609	-5.188889	 0.308190	 3.541030	-5.234859	 0.342567	 0.430617	-0.809543	 7.025408	-3.204337	-7.719977	-16.516730	-4.374893	 96.806920	 64.229550	-161.106900	-6.492035	 3.987811	 55.272250	-5.988988	 0.819263	 26.225370	 15.117370	-38.438550	 19.842950	 1.803333	 3.979147	-15.098590	 4.898592	 3.004813	-9.310344	 5.224449	 0.395017	 2.014677
-0.042806	 0.262056	 1.014957	 2.878009	 30.214250	-6.233316	-20.644080	-79.956140	 162.334000	 6.846582	-73.187390	 6.955777	-49.920670	 83.027400	 55.382500	-2.385833	 28.452760	 0.000004	 64.752080	-75.418040	-123.079600	-21.347320	-76.234570	-15.759150	 76.007580	 79.942110	-67.175670	 2.384659	 28.388700	-0.000001	 3.117286	 17.542880	-0.870194	-0.032348	 26.073530	-1.758522	-8.418401	-6.271451	 3.371935	-96.112000	 72.400410	 159.837700	 9.682963	 5.945010	-40.583600	-2.435250	 11.721650	-41.470640	-36.945290	-40.835480	-27.166400	-2.027600	 6.559038	 9.033609	-5.188889	 0.308190	 3.541030	-5.234859	 0.342567	 0.430617	-1.203822	-1.119572	-2.258788	-7.803533	-8.422345	-3.800321	 95.944080	 65.608150	-162.178200	-7.176253	 6.552778	 56.484830	-6.409608	 0.633960	 27.038560	 15.466660	-38.711350	 21.187630	 1.803333	 3.979147	-15.098590	 4.898592	 3.004813	-9.310344	 5.224449	 0.395017	 2.014677
-0.039815	 0.263234	 1.039194	 2.344745	 27.795040	-4.884103	-19.841820	-75.119900	 163.530100	 6.484457	-69.830310	 6.481514	-44.937740	 82.271910	 49.547540	-2.385833	 28.452750	 0.000004	 48.260840	-73.138460	-139.791700	-17.213640	-72.655800	-11.533710	 69.088740	 79.994870	-60.270530	 2.384659	 28.388700	-0.000001	 3.223328	 18.291530	-1.238370	 0.638268	 26.526780	-2.544490	-8.573381	-8.286746	 2.803873	-93.307660	 76.560330	 160.931800	 12.079190	 12.481710	-44.920920	-1.804862	 10.990570	-41.130310	-39.090900	-41.596470	-29.934430	-2.027600	 6.559038	 9.033609	-5.188889	 0.308190	 3.541030	-5.234859	 0.342567	 0.430617	-1.595879	-11.361930	-2.514803	-7.769369	 1.407006	-2.199319	 94.536080	 68.361560	-163.552400	-8.915095	 10.765240	 57.836010	-7.005832	 0.351604	 28.566950	 15.935930	-39.729950	 22.285310	 1.803333	 3.979147	-15.098590	 4.898592	 3.004813	-9.310344	 5.224449	 0.395017	 2.014677
-0.034367	 0.260893	 1.066978	 2.562858	 25.727920	-3.875981	-18.348440	-70.271550	 165.765200	 6.077267	-65.664090	 5.855437	-36.673110	 81.460200	 40.543530	-2.385833	 28.452750	 0.000004	 36.593770	-69.382470	-151.259200	-12.919520	-68.444170	-7.235555	 62.133300	 79.489300	-53.624930	 2.384659	 28.388700	-0.000001	 3.361292	 17.768370	-1.937825	 0.944003	 26.501170	-3.193438	-8.562085	-10.338710	 1.967993	-93.832520	 75.408110	 163.085100	 14.985940	 14.970920	-44.864670	-0.819946	 10.644140	-42.671450	-39.046020	-41.549320	-32.193940	-2.027600	 6.559038	 9.033609	-5.188889	 0.308190	 3.541030	-5.234859	 0.342567	 0.430617	-1.666878	-14.504450	-1.141956	-7.762102	 4.581016	-2.548533	 93.769580	 69.594450	-164.718800	-11.166650	 14.054770	 56.179010	-7.543498	 0.067650	 32.063930	 15.651600	-40.138160	 22.651770	 1.803333	 3.979147	-15.098590	 4.898592	 3.004813	-9.310344	 5.224449	 0.395017	 2.014677
-0.028311	 0.254676	 1.100410	 2.793040	 23.902840	-2.895509	-17.729210	-64.721770	 167.217400	 5.336776	-60.282290	 5.000756	-28.660800	 79.985180	 31.708210	-2.385833	 28.452750	 0.000004	 28.007680	-64.469560	-159.547600	-9.506010	-62.831220	-3.880260	 52.008420	 78.502590	-43.955950	 2.384659	 28.388700	-0.000001	 3.267565	 16.204870	-2.200240	 1.514822	 26.228000	-3.774494	-8.617259	-12.407490	 1.207275	-94.435070	 73.674570	 164.996600	 18.462180	 16.368270	-43.072740	 0.458348	 10.422520	-45.583190	-37.255550	-41.373190	-32.431710	-2.027600	 6.559038	 9.033609	-5.188889	 0.308190	 3.541030	-5.234859	 0.342567	 0.430617	-1.811859	-15.302270	-0.973722	-7.531213	 5.643660	-2.228190	 93.981500	 67.257040	-166.557300	-13.441140	 14.447760	 51.961870	-7.920805	-0.211421	 38.137550	 14.449640	-39.591920	 22.662940	 1.803333	 3.979147	-15.098590	 4.898592	 3.004813	-9.310344	 5.224449	 0.395017	 2.014677
-0.023418	 0.245445	 1.137333	 3.023798	 21.982080	-1.973891	-17.009580	-58.300530	 168.666900	 4.551777	-53.696350	 4.007438	-22.428880	 77.964580	 24.724960	-2.385833	 28.452750	 0.000004	 21.649430	-58.436480	-165.658400	-6.991413	-55.830700	-1.526797	 41.346830	 77.083630	-33.760490	 2.384659	 28.388700	-0.000001	 3.234458	 13.903860	-2.086382	 2.244432	 25.612450	-4.333571	-8.629525	-14.076740	 0.432397	-94.822990	 71.719150	 166.880400	 21.663790	 17.208230	-41.084150	 1.881287	 10.195220	-49.392220	-34.290570	-41.060620	-30.629260	-2.027600	 6.559038	 9.033609	-5.188889	 0.308190	 3.541030	-5.234859	 0.342567	 0.430617	-1.856641	-15.019230	-0.670276	-7.274783	 5.949995	-2.141550	 93.899210	 64.841580	-168.548500	-15.308900	 14.413380	 47.262790	-8.285391	-0.634395	 45.025680	 12.893310	-38.837310	 22.034560	 1.803333	 3.979147	-15.098590	 4.898592	 3.004813	-9.310344	 5.224449	 0.395017	 2.014677
-0.019141	 0.232828	 1.172138	 3.257917	 19.187700	-1.165498	-15.802550	-50.720520	 170.525000	 3.803727	-46.923000	 3.085246	-17.641340	 76.364520	 19.434060	-2.385833	 28.452750	 0.000004	 17.310180	-50.935110	-170.048000	-5.046208	-48.502720	 0.074954	 33.147870	 75.669850	-25.953180	 2.384659	 28.388700	-0.000001	 3.184032	 11.573710	-1.856957	 2.636496	 24.653020	-4.622030	-8.443599	-14.835460	-0.021217	-94.734690	 70.660410	 168.577700	 24.024710	 18.113450	-39.721400	 3.250194	 9.855246	-53.339890	-31.587960	-40.509120	-28.887950	-2.027600	 6.559038	 9.033609	-5.188889	 0.308190	 3.541030	-5.234859	 0.342567	 0.430617	-1.882713	-13.975740	-0.694206	-6.989347	 5.730852	-2.051961	 93.523350	 64.063170	-170.010100	-16.811310	 15.723510	 43.803900	-8.724538	-1.308835	 50.647580	 11.635290	-38.273390	 21.599660	 1.803333	 3.979147	-15.098590	 4.898592	 3.004813	-9.310344	 5.224449	 0.395017	 2.014677
-0.014365	 0.212229	 1.203229	 3.402920	 14.426890	-0.689087	-13.681600	-40.704520	 173.527900	 2.947217	-40.458310	 2.184177	-11.897830	 74.916580	 13.601830	-2.385833	 28.452760	 0.000004	 14.731380	-40.668980	-173.209100	-3.414361	-41.516990	 1.148185	 26.773460	 74.438500	-19.847710	 2.384659	 28.388700	-0.000001	 2.980170	 9.161835	-1.414924	 2.406687	 22.765160	-3.898422	-8.062504	-14.327090	-0.115064	-94.399510	 70.139630	 170.334600	 25.628580	 18.603080	-38.648070	 4.567775	 9.263676	-57.113240	-29.393390	-39.870200	-28.372590	-2.027600	 6.559038	 9.033609	-5.188889	 0.308190	 3.541030	-5.234859	 0.342567	 0.430617	-1.999074	-11.894490	-1.211681	-6.559191	 4.680552	-1.833856	 93.096210	 63.037030	-171.571800	-18.782230	 17.300930	 42.581250	-9.067358	-1.925992	 53.669130	 10.617550	-37.578080	 21.625300	 1.803333	 3.979147	-15.098590	 4.898592	 3.004813	-9.310344	 5.224449	 0.395017	 2.014677
-0.011856	 0.192332	 1.225375	 3.295801	 11.591060	-0.565176	-12.504330	-33.359460	 175.356100	 2.521756	-34.723890	 1.674710	-8.840035	 74.247020	 10.250340	-2.385833	 28.452750	 0.000004	 13.755020	-33.158400	-174.637800	-2.389660	-35.387680	 1.597187	 22.063730	 73.824620	-15.436780	 2.384659	 28.388700	-0.000001	 2.924969	 6.102690	-0.673361	 2.045337	 18.559210	-2.645792	-7.591177	-13.055220	-0.241850	-94.097920	 69.895420	 171.619600	 27.101370	 19.270650	-37.188450	 5.599673	 8.695272	-60.390340	-27.529210	-39.013810	-27.650430	-2.027600	 6.559038	 9.033609	-5.188889	 0.308190	 3.541030	-5.234859	 0.342567	 0.430617	-2.177147	-10.150910	-1.699985	-6.102006	 3.918370	-1.686540	 92.668220	 62.492360	-172.906100	-20.935870	 18.822250	 40.822740	-9.243229	-2.464291	 57.125820	 9.827395	-37.447540	 21.468590	 1.803333	 3.979147	-15.098590	 4.898592	 3.004813	-9.310344	 5.224449	 0.395017	 2.014677
-0.011559	 0.169780	 1.243188	 2.976124	 10.531820	-0.339224	-11.868540	-28.190260	 176.036200	 2.341167	-29.001020	 1.337795	-7.194829	 72.796520	 8.308934	-2.385833	 28.452750	 0.000004	 13.371840	-27.902790	-175.505900	-1.550778	-29.105260	 1.750664	 16.754700	 72.169980	-10.584310	 2.384659	 28.388700	-0.000001	 2.941984	 3.980258	-0.210102	 1.732344	 13.091630	-1.180856	-6.943259	-11.328020	-0.490062	-93.808650	 69.738070	 172.756800	 27.563070	 19.102510	-36.213520	 6.466891	 8.034537	-63.172810	-26.431320	-38.081180	-28.765970	-2.027600	 6.559038	 9.033609	-5.188889	 0.308190	 3.541030	-5.234859	 0.342567	 0.430617	-2.322792	-8.648401	-2.138348	-5.658672	 3.680971	-1.656741	 92.219650	 62.366600	-174.035900	-22.240730	 20.470530	 40.021330	-9.452511	-3.124180	 60.017510	 8.980206	-37.031070	 21.439800	 1.803333	 3.979147	-15.098590	 4.898592	 3.004813	-9.310344	 5.224449	 0.395017	 2.014677
